{
  "accessors": [
    {
      "bufferView": 1,
      "componentType": 5126,
      "count": 2988,
      "max": [
        0.0997140035033226,
        0.09954400360584259,
        0.09945099800825119
      ],
      "min": [
        -0.0997140035033226,
        -0.09954699873924255,
        -0.09945099800825119
      ],
      "type": "VEC3"
    },
    {
      "bufferView": 1,
      "byteOffset": 35856,
      "componentType": 5126,
      "count": 2988,
      "max": [
        0.9968193173408508,
        0.9994646906852722,
        0.9999999403953552
      ],
      "min": [
        -0.9968367218971252,
        -0.999473512172699,
        -0.9999999403953552
      ],
      "type": "VEC3"
    },
    {
      "bufferView": 0,
      "componentType": 5125,
      "count": 7968,
      "type": "SCALAR"
    },
    {
      "bufferView": 1,
      "byteOffset": 71712,
      "componentType": 5126,
      "count": 2716,
      "max": [
        0.0997140035033226,
        0.10000099986791611,
        0.09945099800825119
      ],
      "min": [
        -0.0997140035033226,
        -0.10000099986791611,
        -0.09945099800825119
      ],
      "type": "VEC3"
    },
    {
      "bufferView": 1,
      "byteOffset": 104304,
      "componentType": 5126,
      "count": 2716,
      "max": [
        0.9999414682388306,
        0.9992577433586121,
        0.9958233833312988
      ],
      "min": [
        -0.9999370574951172,
        -0.9992526769638062,
        -0.9958233833312988
      ],
      "type": "VEC3"
    },
    {
      "bufferView": 0,
      "byteOffset": 31872,
      "componentType": 5125,
      "count": 10308,
      "type": "SCALAR"
    }
  ],
  "asset": {
    "extras": {
      "author": "KnowledgeMediaSys (https://sketchfab.com/KnowledgeMediaSys)",
      "license": "CC-BY-4.0 (http://creativecommons.org/licenses/by/4.0/)",
      "source": "https://sketchfab.com/3d-models/light-ball-81d2919292fc438ba2c1513c4f77899a",
      "title": "Light Ball"
    },
    "generator": "Sketchfab-15.68.0",
    "version": "2.0"
  },
  "bufferViews": [
    {
      "buffer": 0,
      "byteLength": 73104,
      "name": "floatBufferViews",
      "target": 34963
    },
    {
      "buffer": 0,
      "byteLength": 136896,
      "byteOffset": 73104,
      "byteStride": 12,
      "name": "floatBufferViews",
      "target": 34962
    }
  ],
  "buffers": [
    {
      "byteLength": 210000,
      "uri": "scene.bin"
    }
  ],
  "materials": [
    {
      "doubleSided": true,
      "name": "white",
      "pbrMetallicRoughness": {
        "metallicFactor": 0.0,
        "roughnessFactor": 0.8318207169492571
      }
    }
  ],
  "meshes": [
    {
      "name": "dimple_white_0",
      "primitives": [
        {
          "attributes": {
            "NORMAL": 1,
            "POSITION": 0
          },
          "indices": 2,
          "material": 0,
          "mode": 4
        }
      ]
    },
    {
      "name": "cover_white_0",
      "primitives": [
        {
          "attributes": {
            "NORMAL": 4,
            "POSITION": 3
          },
          "indices": 5,
          "material": 0,
          "mode": 4
        }
      ]
    }
  ],
  "nodes": [
    {
      "children": [
        1
      ],
      "matrix": [
        1.0,
        0.0,
        0.0,
        0.0,
        0.0,
        2.220446049250313e-16,
        -1.0,
        0.0,
        0.0,
        1.0,
        2.220446049250313e-16,
        0.0,
        0.0,
        0.0,
        0.0,
        1.0
      ],
      "name": "Sketchfab_model"
    },
    {
      "children": [
        2
      ],
      "matrix": [
        0.02539999969303608,
        0.0,
        0.0,
        0.0,
        0.0,
        0.0,
        0.02539999969303608,
        0.0,
        0.0,
        -0.02539999969303608,
        0.0,
        0.0,
        0.0,
        0.0,
        0.0,
        1.0
      ],
      "name": "Light Ball.FBX"
    },
    {
      "children": [
        3,
        5
      ],
      "name": "RootNode"
    },
    {
      "children": [
        4
      ],
      "matrix": [
        1.0,
        0.0,
        0.0,
        0.0,
        0.0,
        2.220446049250313e-16,
        -1.0,
        0.0,
        0.0,
        1.0,
        2.220446049250313e-16,
        0.0,
        0.0,
        0.0,
        0.0,
        1.0
      ],
      "name": "dimple"
    },
    {
      "mesh": 0,
      "name": "dimple_white_0"
    },
    {
      "children": [
        6
      ],
      "matrix": [
        1.0,
        0.0,
        0.0,
        0.0,
        0.0,
        2.220446049250313e-16,
        -1.0,
        0.0,
        0.0,
        1.0,
        2.220446049250313e-16,
        0.0,
        0.0,
        0.0,
        0.0,
        1.0
      ],
      "name": "cover"
    },
    {
      "mesh": 1,
      "name": "cover_white_0"
    }
  ],
  "scene": 0,
  "scenes": [
    {
      "name": "Sketchfab_Scene",
      "nodes": [
        0
      ]
    }
  ]
}
